solid Onshape
  facet normal 0 1 0
    outer loop
      vertex -0.0125 0 -0.0125
      vertex -0.0125 0 0.0125
      vertex 0.0125 0 -0.0125
    endloop
  endfacet
  facet normal 0 1 0
    outer loop
      vertex -0.0125 0 0.0125
      vertex 0.0125 0 0.0125
      vertex 0.0125 0 -0.0125
    endloop
  endfacet
  facet normal 0 -1 0
    outer loop
      vertex -0.0125 -0.025 0.0125
      vertex -0.0125 -0.025 -0.0125
      vertex 0.0125 -0.025 0.0125
    endloop
  endfacet
  facet normal 0 -1 0
    outer loop
      vertex -0.0125 -0.025 -0.0125
      vertex 0.0125 -0.025 -0.0125
      vertex 0.0125 -0.025 0.0125
    endloop
  endfacet
  facet normal 0 0 -1
    outer loop
      vertex 0.0125 -0.025 -0.0125
      vertex -0.0125 -0.025 -0.0125
      vertex 0.0125 0 -0.0125
    endloop
  endfacet
  facet normal 0 0 -1
    outer loop
      vertex -0.0125 -0.025 -0.0125
      vertex -0.0125 0 -0.0125
      vertex 0.0125 0 -0.0125
    endloop
  endfacet
  facet normal -1 0 0
    outer loop
      vertex -0.0125 -0.025 -0.0125
      vertex -0.0125 -0.025 0.0125
      vertex -0.0125 0 -0.0125
    endloop
  endfacet
  facet normal -1 0 0
    outer loop
      vertex -0.0125 -0.025 0.0125
      vertex -0.0125 0 0.0125
      vertex -0.0125 0 -0.0125
    endloop
  endfacet
  facet normal 1 0 0
    outer loop
      vertex 0.0125 -0.025 0.0125
      vertex 0.0125 -0.025 -0.0125
      vertex 0.0125 0 0.0125
    endloop
  endfacet
  facet normal 1 0 0
    outer loop
      vertex 0.0125 -0.025 -0.0125
      vertex 0.0125 0 -0.0125
      vertex 0.0125 0 0.0125
    endloop
  endfacet
  facet normal 0 0 1
    outer loop
      vertex -0.0125 -0.025 0.0125
      vertex 0.0125 -0.025 0.0125
      vertex -0.0125 0 0.0125
    endloop
  endfacet
  facet normal 0 0 1
    outer loop
      vertex 0.0125 -0.025 0.0125
      vertex 0.0125 0 0.0125
      vertex -0.0125 0 0.0125
    endloop
  endfacet
endsolid Onshape
